# xmcd
# 
# Track frame offsets:
#     182
#     18455
#     34920
#     48592
#     62147
#     74782
#     85030
#     96380
#     107595
#     119617
#     132627
#     141897
#     154062
#     165210
#     175340
#     187400
#     199500
# 
# Disc length: 2854
# 
# Revision: 5
# Processed by: cddbd v1.5.2PL0 Copyright (c) Steve Scherf et al.
# Submitted via: fre:ac v1.0.27
# 
DISCID=fe0b2411
DTITLE=John Lee Hooker - 51 Great Blues Hits disk 2
DYEAR=1990
DGENRE=Blues
TTITLE0=House Rent Boogie
TTITLE1=Mama, You Got A Daughter
TTITLE2=Tease Me Baby
TTITLE3=Ground Hog Blues
TTITLE4=Leave My Wife Alone
TTITLE5=Dimples
TTITLE6=Boom Boom
TTITLE7=Bottle Up And Go
TTITLE8=Cry Before I Go
TTITLE9=Back Biter And Syndicaters
TTITLE10=Think Twice Before You Go
TTITLE11=I'm In The Mood
TTITLE12=Little Wheel
TTITLE13=Want Ad Blues
TTITLE14=Whiskey And Wimmen
TTITLE15=Crawling King Snake
TTITLE16=Sugar Mama
EXTD=
EXTT0=
EXTT1=
EXTT2=
EXTT3=
EXTT4=
EXTT5=
EXTT6=
EXTT7=
EXTT8=
EXTT9=
EXTT10=
EXTT11=
EXTT12=
EXTT13=
EXTT14=
EXTT15=
EXTT16=
PLAYORDER=
